<?xml version="1.0" encoding="UTF-8"?>
<svg version="1.1" xmlns="http://www.w3.org/2000/svg" width="1024" height="1024">
<path d="M0 0 C2.99524137 1.34800602 5.72642695 3.06012827 8.5 4.8125 C9.96768113 5.71658126 11.43641252 6.61895999 12.90625 7.51953125 C13.61136719 7.95475098 14.31648438 8.3899707 15.04296875 8.83837891 C17.13261586 10.11464395 17.13261586 10.11464395 19.96875 11.44921875 C22.58602831 12.78821293 24.87704757 14.22185255 27.30078125 15.87109375 C31.78364433 18.91052921 36.4147131 21.5109096 41.1875 24.0625 C49.38928089 28.51166629 57.45477903 33.15297058 65.46728516 37.93383789 C70.4717881 40.91894121 75.49307221 43.8674572 80.55078125 46.76171875 C81.63713867 47.3858667 82.72349609 48.01001465 83.84277344 48.65307617 C85.94008466 49.85615165 88.04084358 51.05324291 90.14550781 52.2434082 C91.0990918 52.792146 92.05267578 53.34088379 93.03515625 53.90625 C93.8744165 54.38384766 94.71367676 54.86144531 95.57836914 55.35351562 C102.63228672 60.14952532 102.63228672 60.14952532 103.47744465 64.40268517 C103.68148498 67.53180586 103.72116609 70.62756133 103.71044922 73.76342773 C103.72563599 74.95420929 103.74082275 76.14499084 103.75646973 77.37185669 C103.79156539 80.63039314 103.80397232 83.88796042 103.80335379 87.14665866 C103.80513715 89.87032987 103.82106982 92.5938514 103.83647549 95.31747395 C103.87196448 101.7447005 103.87976876 108.17157034 103.87158203 114.59887695 C103.86373832 121.22231596 103.90772019 127.844021 103.97638309 134.46707004 C104.03327927 140.1607293 104.05531743 145.85382742 104.05014813 151.54776722 C104.04757362 154.9455301 104.05866685 158.34186138 104.10439682 161.73934746 C104.14610205 165.53005458 104.13078157 169.31644935 104.10107422 173.10717773 C104.12557648 174.22789169 104.15007874 175.34860565 104.17532349 176.50328064 C104.03446749 183.94910545 104.03446749 183.94910545 101.03202248 186.99922848 C98.74606696 188.54401362 96.48190314 189.80171233 94 191 C92.97471191 191.62156982 91.94942383 192.24313965 90.89306641 192.88354492 C89.97187012 193.41052979 89.05067383 193.93751465 88.1015625 194.48046875 C87.05556885 195.08109131 86.0095752 195.68171387 84.93188477 196.30053711 C83.84061279 196.92323486 82.74934082 197.54593262 81.625 198.1875 C80.46195375 198.85454274 79.29911484 199.5219471 78.13647461 200.18969727 C75.82109677 201.51912246 73.50481373 202.84692199 71.18798828 204.17382812 C53.01079186 214.58625187 34.95614311 225.2107606 17 236 C21.50763758 239.97568035 26.53764603 242.57955977 31.8125 245.375 C40.01405665 249.78030175 48.10257037 254.33906803 56.125 259.0625 C63.82743895 263.58811358 71.55760659 268.05043904 79.375 272.375 C80.21949707 272.84558838 81.06399414 273.31617676 81.93408203 273.80102539 C83.09206299 274.43705688 83.09206299 274.43705688 84.2734375 275.0859375 C84.94810059 275.4576709 85.62276367 275.8294043 86.31787109 276.21240234 C87.99231805 277.14134548 87.99231805 277.14134548 90 277 C90 277.66 90 278.32 90 279 C90.680625 279.2475 91.36125 279.495 92.0625 279.75 C95.61508774 281.26173946 98.7346443 282.92775504 102 285 C102.90479216 287.71437648 103.1279856 289.28690249 103.13701439 292.07490444 C103.1446262 293.32373619 103.1446262 293.32373619 103.15239179 294.59779686 C103.15288955 295.51237555 103.15338731 296.42695424 103.15390015 297.36924744 C103.1582824 298.34087391 103.16266465 299.31250038 103.1671797 300.31357008 C103.18058242 303.58396727 103.1867498 306.8543375 103.19287109 310.12475586 C103.20077068 312.46350731 103.20903954 314.80225754 103.21765137 317.14100647 C103.24388038 324.8322737 103.25917637 332.52354642 103.2734375 340.21484375 C103.27879615 342.85929429 103.28417365 345.5037448 103.28956985 348.14819527 C103.31139592 359.14318637 103.33008726 370.13817789 103.34119225 381.13318539 C103.34412197 383.98584434 103.34708364 386.83850325 103.35009766 389.69116211 C103.35084371 390.40018268 103.35158976 391.10920325 103.35235842 391.83970929 C103.36502159 403.33437586 103.39825891 414.82888809 103.43989949 426.32348245 C103.48228758 438.12092725 103.50588341 449.91829293 103.51111281 461.7158137 C103.51452988 468.341352 103.52688493 474.96667598 103.55921555 481.59214592 C103.58917678 487.82118771 103.59565062 494.0498075 103.58383179 500.27890587 C103.58361007 502.56868814 103.5919952 504.85848933 103.60948563 507.1482048 C103.63201994 510.2672413 103.6239551 513.38472702 103.60800171 516.50376892 C103.6218838 517.41611689 103.63576588 518.32846486 103.65006864 519.26845974 C103.57246245 525.39919379 103.57246245 525.39919379 100.62107277 528.49671268 C99.75611876 528.9927975 98.89116474 529.48888231 98 530 C97.16009521 530.51111328 96.32019043 531.02222656 95.45483398 531.54882812 C94.56094971 532.03802734 93.66706543 532.52722656 92.74609375 533.03125 C91.73732178 533.588125 90.7285498 534.145 89.68920898 534.71875 C88.61614502 535.3065625 87.54308105 535.894375 86.4375 536.5 C78.52760517 540.87949624 70.66978589 545.31340598 62.9375 550 C49.416028 558.18982912 35.74232609 566.1169244 22.046875 574.01171875 C21.46720978 574.3458931 20.88754456 574.68006744 20.29031372 575.02436829 C17.49582117 576.63495139 14.7004314 578.24394835 11.90380859 579.85083008 C6.2644124 583.0956038 0.67140382 586.39039428 -4.84814453 589.8359375 C-7.03686501 591.01994241 -8.51920399 591.78611284 -11 592 C-13.50756836 591.01879883 -13.50756836 591.01879883 -16.33984375 589.45703125 C-17.39179932 588.88404297 -18.44375488 588.31105469 -19.52758789 587.72070312 C-20.65285889 587.09099609 -21.77812988 586.46128906 -22.9375 585.8125 C-24.11597326 585.16383742 -25.29493436 584.51606039 -26.47436523 583.86914062 C-35.25966697 579.03437924 -43.97291875 574.07090354 -52.66015625 569.0625 C-58.57776053 565.6563017 -64.53803071 562.32774807 -70.5 559 C-79.09076492 554.20141887 -87.65427596 549.35899633 -96.19189453 544.46655273 C-102.57423056 540.81042228 -108.97048137 537.17962692 -115.375 533.5625 C-116.33019531 533.02302734 -117.28539062 532.48355469 -118.26953125 531.92773438 C-121.17947161 530.28477343 -124.08968232 528.64229246 -127 527 C-140.85825944 519.17978327 -154.70846719 511.34646587 -168.51074219 503.42773438 C-170.13578246 502.49567911 -171.76140778 501.56464291 -173.38769531 500.63476562 C-178.94461186 497.45607015 -184.48135983 494.24470212 -190 491 C-190.92635254 490.45585449 -191.85270508 489.91170898 -192.80712891 489.35107422 C-208.49732172 480.09064557 -223.47528144 470.45886279 -236.84375 458.00390625 C-238.84701924 456.14217233 -240.90573297 454.3826884 -243 452.625 C-256.8695841 440.44750516 -267.75184995 424.85397151 -277 409 C-277.65484375 407.9275 -278.3096875 406.855 -278.984375 405.75 C-307.64301241 357.76344433 -314.6213034 297.52752881 -304.35131836 243.32397461 C-303.9003513 240.73255267 -303.9003513 240.73255267 -304 237 C-303.34 237 -302.68 237 -302 237 C-301.88785156 235.99453125 -301.77570313 234.9890625 -301.66015625 233.953125 C-301.09652662 230.00473541 -299.85493019 226.4813547 -298.4375 222.75 C-296.56079728 217.99561207 -296.56079728 217.99561207 -296 213 C-295.34 213 -294.68 213 -294 213 C-293.7525 212.195625 -293.505 211.39125 -293.25 210.5625 C-290.85194853 203.72805331 -288.19671915 197.8413846 -283.6796875 192.14453125 C-281.8138555 189.76234109 -280.10606898 187.29417773 -278.375 184.8125 C-261.83658063 162.15455165 -239.21335058 146.43164562 -211.5 140.75 C-177.52312302 135.48032189 -147.844004 144.49580375 -118.30737305 160.76074219 C-115.56662541 162.23275944 -112.78748656 163.61890094 -110 165 C-110.01252808 164.2514978 -110.02505615 163.50299561 -110.03796387 162.73181152 C-110.15767938 155.55783929 -110.27542797 148.38383837 -110.39115143 141.20980072 C-110.45066112 137.52461496 -110.51084228 133.83944313 -110.57275391 130.15429688 C-110.85619597 113.25154689 -111.07207604 96.35484697 -111.00805664 79.44900513 C-110.99536473 75.59100132 -110.99786207 71.73301899 -111 67.875 C-111 62.05886333 -111 62.05886333 -108.55664062 59.47167969 C-103.01962493 55.11547669 -96.66613792 51.86422253 -90.5 48.5 C-82.00352545 43.80449772 -73.55847148 39.04091677 -65.1875 34.125 C-56.34695946 28.93807935 -47.46853805 23.82321479 -38.5625 18.75 C-29.30898326 13.47849657 -20.08956435 8.15552654 -10.9296875 2.72265625 C-6.81721413 0.30452191 -4.82868489 -0.51498589 0 0 Z " fill="#000000" transform="translate(576,187)"/>
<path d="M0 0 C0.37394567 27.33772336 0.65599632 54.67506293 0.82899475 82.01482964 C0.91146108 94.70964986 1.02386168 107.40288014 1.20703125 120.09667969 C1.36662851 131.16218444 1.46975797 142.22653781 1.50541592 153.29316151 C1.52625858 159.15234442 1.575138 165.00823395 1.69168091 170.86635971 C1.8005744 176.38486748 1.83373715 181.89873851 1.8097229 187.41821861 C1.81411296 189.43964704 1.84579473 191.46123566 1.9072876 193.48173332 C2.33736078 208.34616721 2.33736078 208.34616721 -1.5735569 212.78661203 C-5.39728361 215.94223193 -9.59324656 218.14462696 -14.1085453 220.14716268 C-16.58679784 221.26458106 -18.8852727 222.62946558 -21.20703125 224.0390625 C-22.74062829 224.90381271 -24.27579888 225.76577799 -25.8125 226.625 C-34.14476065 231.33545672 -42.39909936 236.16936696 -50.625 241.0625 C-58.77355575 245.90634373 -66.92769814 250.73897285 -75.125 255.5 C-76.31536865 256.19428101 -76.31536865 256.19428101 -77.52978516 256.90258789 C-82.8801348 260 -82.8801348 260 -84 260 C-84 190.04 -84 120.08 -84 48 C-57.23648897 32.55951287 -57.23648897 32.55951287 -47.68676758 27.05786133 C-37.04727314 20.92654895 -26.42643732 14.76423236 -15.82568359 8.56616211 C-13.21834404 7.04200042 -10.6096418 5.5202157 -8 4 C-7.27731934 3.5776709 -6.55463867 3.1553418 -5.81005859 2.72021484 C-1.11670499 0 -1.11670499 0 0 0 Z " fill="#FEFEFE" transform="translate(663,493)"/>
<path d="M0 0 C0.20856709 12.6736695 0.36846353 25.34693059 0.46630955 38.02196693 C0.51327267 43.90767673 0.57696443 49.79221222 0.67895508 55.67724609 C0.7767759 61.35724791 0.83056423 67.03612073 0.85389519 72.71689987 C0.87051996 74.88358717 0.90298633 77.0502129 0.95157051 79.21641922 C1.0169691 82.25321943 1.02590093 85.28536235 1.02172852 88.32275391 C1.054086 89.21755463 1.08644348 90.11235535 1.11978149 91.03427124 C1.081006 93.64449146 0.94300819 95.56172329 0 98 C-2.71668383 100.59097191 -5.67702042 102.29036842 -9 104 C-10.16765963 104.6740641 -11.33441267 105.34970256 -12.5 106.02734375 C-13.655 106.65769531 -14.81 107.28804688 -16 107.9375 C-23.12432498 111.87401197 -30.09826233 116.03777241 -37.0625 120.25 C-46.35834363 125.86640092 -55.73040595 131.31752392 -65.21313477 136.61230469 C-70.57002217 139.60590283 -75.85370023 142.68940109 -81.08618164 145.89624023 C-83 147 -83 147 -84 147 C-84.20856709 134.3263305 -84.36846353 121.65306941 -84.46630955 108.97803307 C-84.51327267 103.09232327 -84.57696443 97.20778778 -84.67895508 91.32275391 C-84.7767759 85.64275209 -84.83056423 79.96387927 -84.85389519 74.28310013 C-84.87051996 72.11641283 -84.90298633 69.9497871 -84.95157051 67.78358078 C-85.0169691 64.74678057 -85.02590093 61.71463765 -85.02172852 58.67724609 C-85.07026474 57.33504501 -85.07026474 57.33504501 -85.11978149 55.96572876 C-85.08099736 53.3549265 -84.9439993 51.43857125 -84 49 C-81.28138017 46.41278304 -78.32150181 44.71035249 -75 43 C-73.92347168 42.36795654 -72.84694336 41.73591309 -71.73779297 41.0847168 C-70.74924316 40.54500244 -69.76069336 40.00528809 -68.7421875 39.44921875 C-67.63012939 38.83812256 -66.51807129 38.22702637 -65.37231445 37.59741211 C-63.6411438 36.65200562 -63.6411438 36.65200562 -61.875 35.6875 C-53.47405007 31.06716771 -45.13702374 26.38270345 -36.953125 21.38671875 C-30.52158466 17.47344838 -23.98516491 13.7337343 -17.47192383 9.95874023 C-13.05372893 7.39184786 -8.65819127 4.81035644 -4.33984375 2.078125 C-1 0 -1 0 0 0 Z " fill="#FEFEFE" transform="translate(663,265)"/>
<path d="M0 0 C1.22396484 0.66201416 1.22396484 0.66201416 2.47265625 1.33740234 C3.21644531 1.71300293 3.96023438 2.08860352 4.7265625 2.47558594 C5.48839844 2.89146973 6.25023437 3.30735352 7.03515625 3.73583984 C7.90309814 4.20876465 8.77104004 4.68168945 9.6652832 5.16894531 C10.59171631 5.67828613 11.51814941 6.18762695 12.47265625 6.71240234 C13.4474292 7.24623535 14.42220215 7.78006836 15.42651367 8.33007812 C22.77715855 12.37035353 30.07206328 16.50256504 37.34350586 20.68334961 C45.39078921 25.30724871 53.48787764 29.83991117 61.59692383 34.35449219 C68.60587891 38.26440604 75.55348436 42.27077071 82.47265625 46.33740234 C79.59757733 49.45358422 76.78596507 51.48284615 73.0703125 53.50927734 C72.02238525 54.08669678 70.97445801 54.66411621 69.89477539 55.2590332 C68.23176392 56.16407593 68.23176392 56.16407593 66.53515625 57.08740234 C58.96304072 61.26491855 51.48068415 65.47452218 44.1640625 70.08349609 C37.55913697 74.17749062 30.7597671 77.95968289 24.01293945 81.8137207 C16.98418611 85.83585765 16.98418611 85.83585765 10.11328125 90.11865234 C9.5203125 90.5034375 8.92734375 90.88822266 8.31640625 91.28466797 C6.86305756 92.24466177 5.42478053 93.22737426 3.98828125 94.21240234 C0.66351831 95.69925285 -1.00595515 95.1748319 -4.52734375 94.33740234 C-7.36621094 92.99316406 -7.36621094 92.99316406 -10.32421875 91.26708984 C-11.43434326 90.62570068 -12.54446777 89.98431152 -13.68823242 89.32348633 C-14.88470975 88.61997342 -16.08107733 87.91627383 -17.27734375 87.21240234 C-18.52855181 86.48505882 -19.78026936 85.75859112 -21.0324707 85.03295898 C-23.60903046 83.53840516 -26.18271854 82.0390735 -28.75439453 80.53613281 C-32.25063518 78.49508844 -35.75980553 76.47729446 -39.2734375 74.46630859 C-54.14418426 65.95036192 -68.86614948 57.20828059 -83.52734375 48.33740234 C-80.80678991 45.43323846 -78.17901674 43.35193102 -74.73046875 41.37646484 C-73.78429687 40.82990234 -72.838125 40.28333984 -71.86328125 39.72021484 C-70.84492188 39.14013672 -69.8265625 38.56005859 -68.77734375 37.96240234 C-66.5949566 36.70475551 -64.41266763 35.44693832 -62.23046875 34.18896484 C-60.55694336 33.22845215 -60.55694336 33.22845215 -58.84960938 32.24853516 C-53.7280374 29.30235163 -48.62819615 26.31926387 -43.52734375 23.33740234 C-41.55220786 22.18484516 -39.57694664 21.03250274 -37.6015625 19.88037109 C-36.61462402 19.30464355 -35.62768555 18.72891602 -34.61083984 18.13574219 C-31.3606614 16.24019077 -28.11005309 14.34537803 -24.859375 12.45068359 C-23.76818359 11.81453125 -22.67699219 11.17837891 -21.55273438 10.52294922 C-19.461738 9.30394282 -17.37059959 8.08518 -15.27929688 6.86669922 C-14.33634766 6.31691406 -13.39339844 5.76712891 -12.421875 5.20068359 C-11.59534424 4.71897705 -10.76881348 4.23727051 -9.91723633 3.7409668 C-7.45930326 2.34841474 -7.45930326 2.34841474 -5.03393555 0.53344727 C-2.52734375 -0.66259766 -2.52734375 -0.66259766 0 0 Z " fill="#FDFEFE" transform="translate(573.52734375,431.66259765625)"/>
<path d="M0 0 C3.28130234 1.57609366 5.75107998 3.51414098 8.56640625 5.8203125 C11.12121536 7.42764274 13.75475724 8.89220584 16.37890625 10.3828125 C17.84395151 11.25137505 19.30743794 12.12257118 20.76953125 12.99609375 C26.01075021 16.1016364 31.317723 19.08651179 36.62890625 22.0703125 C46.96253071 27.88226934 57.21208021 33.83094453 67.44140625 39.82421875 C71.46815186 42.18322547 75.50856868 44.51523533 79.56640625 46.8203125 C79.56640625 47.4803125 79.56640625 48.1403125 79.56640625 48.8203125 C78.95869385 49.16175293 78.35098145 49.50319336 77.72485352 49.85498047 C65.81246365 56.55338562 53.94400556 63.30993907 42.18505859 70.27392578 C37.02542163 73.32083428 31.85382156 76.34741907 26.68389893 79.37683105 C24.21047844 80.82626281 21.73725471 82.27602801 19.26489258 83.7272644 C18.08501504 84.41793281 16.90355016 85.10589717 15.72045898 85.79104614 C12.84545555 87.45952097 10.01909034 89.1715821 7.22119141 90.96728516 C6.17624512 91.62647949 5.13129883 92.28567383 4.0546875 92.96484375 C2.68050659 93.8616687 2.68050659 93.8616687 1.27856445 94.77661133 C-1.43359375 95.8203125 -1.43359375 95.8203125 -4.42797852 95.19677734 C-7.41603046 93.82835586 -10.19871157 92.35164655 -13.01171875 90.65234375 C-14.07672607 90.01409668 -15.1417334 89.37584961 -16.23901367 88.71826172 C-16.79946381 88.37889587 -17.35991394 88.03953003 -17.93734741 87.68988037 C-20.95090262 85.8656633 -23.97627074 84.06119043 -27 82.25390625 C-27.62002396 81.88263611 -28.24004791 81.51136597 -28.87886047 81.12884521 C-35.08721945 77.41640666 -41.34885407 73.79863561 -47.62109375 70.1953125 C-48.67441895 69.5883252 -49.72774414 68.98133789 -50.81298828 68.35595703 C-55.75561205 65.50790923 -60.70163425 62.66607411 -65.65516663 59.83703613 C-68.45951908 58.23287986 -71.25849944 56.61938659 -74.05859375 55.0078125 C-75.10297607 54.41468262 -76.1473584 53.82155273 -77.22338867 53.21044922 C-78.17189697 52.66275879 -79.12040527 52.11506836 -80.09765625 51.55078125 C-80.9376416 51.07020264 -81.77762695 50.58962402 -82.64306641 50.09448242 C-83.23394043 49.67400635 -83.82481445 49.25353027 -84.43359375 48.8203125 C-84.43359375 48.1603125 -84.43359375 47.5003125 -84.43359375 46.8203125 C-83.47582031 46.28664062 -82.51804687 45.75296875 -81.53125 45.203125 C-73.79551054 40.87969086 -66.11200944 36.48145402 -58.48535156 31.96850586 C-54.12131863 29.39068855 -49.74325722 26.83904318 -45.3515625 24.30859375 C-43.73604492 23.37720581 -43.73604492 23.37720581 -42.08789062 22.42700195 C-39.85961072 21.1473038 -37.62782189 19.87369634 -35.39257812 18.60620117 C-29.90674262 15.48028136 -24.54018896 12.27770446 -19.296875 8.7578125 C-5.62791953 -0.29452139 -5.62791953 -0.29452139 0 0 Z " fill="#FDFDFD" transform="translate(575.43359375,204.1796875)"/>
<path d="M0 0 C3.21009644 1.80567925 6.38824048 3.65721164 9.55859375 5.53173828 C11.12383789 6.44536133 11.12383789 6.44536133 12.72070312 7.37744141 C14.8475723 8.6205842 16.96058062 9.88779332 19.05792236 11.18013 C21.705914 12.75661685 24.35157933 13.98955323 27.20782471 15.14237976 C38.459408 20.04035852 38.459408 20.04035852 40.81839943 25.56129265 C42.29040013 32.21674748 41.82059531 38.99647198 41.53125 45.75830078 C41.49950593 47.94109703 41.47532442 50.12401518 41.45835876 52.30697632 C41.39372023 58.02809464 41.22703151 63.74176756 41.03839111 69.45996094 C40.86385666 75.30447639 40.78671392 81.15020676 40.70117188 86.99658203 C40.51934204 98.44905662 40.22958258 109.8960264 39.87109375 121.34423828 C35.67565402 119.99233863 32.04624462 118.47092098 28.23046875 116.25439453 C27.16852295 115.64055908 26.10657715 115.02672363 25.01245117 114.39428711 C23.89330322 113.738396 22.77415527 113.08250488 21.62109375 112.40673828 C20.45226345 111.72398213 19.28339921 111.04128409 18.11450195 110.35864258 C15.78113563 108.99394174 13.45056638 107.62460509 11.12158203 106.25244141 C8.29625136 104.59382757 5.45975863 102.95739596 2.6171875 101.32861328 C-7.11889089 95.67275377 -15.26243814 89.39985767 -23.12890625 81.34423828 C-23.88558594 80.59658203 -24.64226562 79.84892578 -25.421875 79.07861328 C-39.90872431 63.94728132 -45.7865918 43.33640347 -45.3984375 22.74658203 C-44.96807619 12.95851223 -42.1003676 5.05682333 -35.12109375 -1.90966797 C-24.23008119 -11.45532015 -11.30900647 -5.98452574 0 0 Z " fill="#FCFCFC" transform="translate(427.12890625,459.65576171875)"/>
<path d="" fill="#100F0F" transform="translate(0,0)"/>
<path d="" fill="#0C0C0B" transform="translate(0,0)"/>
<path d="" fill="#0E0F0E" transform="translate(0,0)"/>
<path d="" fill="#0E0F0F" transform="translate(0,0)"/>
<path d="" fill="#0F0E0E" transform="translate(0,0)"/>
<path d="M0 0 C2 1 2 1 2 1 Z " fill="#161718" transform="translate(595,424)"/>
<path d="M0 0 C2 1 2 1 2 1 Z " fill="#0C0B0C" transform="translate(336,336)"/>
<path d="M0 0 C2 1 2 1 2 1 Z " fill="#151415" transform="translate(488,232)"/>
<path d="" fill="#5C5C5C" transform="translate(0,0)"/>
<path d="" fill="#161615" transform="translate(0,0)"/>
<path d="" fill="#131213" transform="translate(0,0)"/>
<path d="" fill="#1A1818" transform="translate(0,0)"/>
<path d="" fill="#0C0D0D" transform="translate(0,0)"/>
<path d="" fill="#0A0A0A" transform="translate(0,0)"/>
<path d="" fill="#1C1A1B" transform="translate(0,0)"/>
<path d="" fill="#0B0A0C" transform="translate(0,0)"/>
<path d="" fill="#07080A" transform="translate(0,0)"/>
<path d="" fill="#1C1C1F" transform="translate(0,0)"/>
<path d="" fill="#0B0A0A" transform="translate(0,0)"/>
<path d="" fill="#0B0A0B" transform="translate(0,0)"/>
<path d="" fill="#0B0A0A" transform="translate(0,0)"/>
<path d="" fill="#0B0D0B" transform="translate(0,0)"/>
<path d="" fill="#0A0B09" transform="translate(0,0)"/>
<path d="" fill="#0D0C0C" transform="translate(0,0)"/>
<path d="" fill="#0A090B" transform="translate(0,0)"/>
<path d="" fill="#0C0E0C" transform="translate(0,0)"/>
<path d="" fill="#0D0E0C" transform="translate(0,0)"/>
<path d="" fill="#0E0E0E" transform="translate(0,0)"/>
<path d="" fill="#0C0C0C" transform="translate(0,0)"/>
<path d="" fill="#0C0C0D" transform="translate(0,0)"/>
<path d="" fill="#0C0F0C" transform="translate(0,0)"/>
<path d="" fill="#0D0C0C" transform="translate(0,0)"/>
<path d="" fill="#0F0F0E" transform="translate(0,0)"/>
<path d="" fill="#100F12" transform="translate(0,0)"/>
<path d="" fill="#110F0C" transform="translate(0,0)"/>
<path d="" fill="#101211" transform="translate(0,0)"/>
<path d="" fill="#111210" transform="translate(0,0)"/>
<path d="" fill="#0E0F10" transform="translate(0,0)"/>
<path d="" fill="#1A1A19" transform="translate(0,0)"/>
<path d="" fill="#0D0E0F" transform="translate(0,0)"/>
<path d="" fill="#161719" transform="translate(0,0)"/>
<path d="" fill="#0D0F0E" transform="translate(0,0)"/>
<path d="" fill="#191919" transform="translate(0,0)"/>
<path d="" fill="#0C0C0E" transform="translate(0,0)"/>
<path d="" fill="#171918" transform="translate(0,0)"/>
<path d="" fill="#0D0E0E" transform="translate(0,0)"/>
<path d="" fill="#0C0B0B" transform="translate(0,0)"/>
<path d="" fill="#1D1D1F" transform="translate(0,0)"/>
<path d="" fill="#1D1D1A" transform="translate(0,0)"/>
<path d="" fill="#1E1D1E" transform="translate(0,0)"/>
<path d="" fill="#0B0D0C" transform="translate(0,0)"/>
<path d="" fill="#0B090B" transform="translate(0,0)"/>
<path d="" fill="#090C0B" transform="translate(0,0)"/>
<path d="" fill="#0E0D0E" transform="translate(0,0)"/>
<path d="" fill="#0D110E" transform="translate(0,0)"/>
<path d="" fill="#080709" transform="translate(0,0)"/>
<path d="" fill="#1F1F1E" transform="translate(0,0)"/>
<path d="" fill="#0E1210" transform="translate(0,0)"/>
<path d="" fill="#0A0909" transform="translate(0,0)"/>
<path d="" fill="#090909" transform="translate(0,0)"/>
<path d="" fill="#1A1C1A" transform="translate(0,0)"/>
<path d="" fill="#151514" transform="translate(0,0)"/>
<path d="" fill="#151515" transform="translate(0,0)"/>
<path d="" fill="#191C1A" transform="translate(0,0)"/>
<path d="" fill="#1A191C" transform="translate(0,0)"/>
<path d="" fill="#1F1F1D" transform="translate(0,0)"/>
<path d="" fill="#1B1C18" transform="translate(0,0)"/>
<path d="" fill="#212020" transform="translate(0,0)"/>
<path d="" fill="#202322" transform="translate(0,0)"/>
</svg>
